<svg xmlns="http://www.w3.org/2000/svg" viewBox="0 0 1440 900" width="1440" height="900" font-family="-apple-system, 'Segoe UI', Inter, sans-serif">
  <defs>
    <linearGradient id="kpiBg" x1="0" y1="0" x2="0" y2="1">
      <stop offset="0" stop-color="#1A1A1D"/>
      <stop offset="1" stop-color="#0A0A0A"/>
    </linearGradient>
    <linearGradient id="spark" x1="0" y1="1" x2="0" y2="0">
      <stop offset="0" stop-color="#FFD60A" stop-opacity="0"/>
      <stop offset="1" stop-color="#FFD60A" stop-opacity="0.4"/>
    </linearGradient>
  </defs>

  <!-- Dark canvas -->
  <rect width="1440" height="900" fill="#0A0A0A"/>

  <!-- NavRail -->
  <rect width="240" height="900" fill="#111114"/>
  <g transform="translate(24,28)">
    <rect width="36" height="36" rx="10" fill="#FFD60A"/>
    <text x="18" y="26" text-anchor="middle" font-size="20" font-weight="900" fill="#0A0A0A">T</text>
    <text x="48" y="24" font-size="15" font-weight="800" fill="#FFFBEA">Admin</text>
    <text x="48" y="40" font-size="10" font-weight="700" fill="#EF4444">⚠ PROD</text>
  </g>

  <!-- Nav items -->
  <g transform="translate(0,90)" font-size="13" fill="#9CA3AF">
    <!-- Active -->
    <rect x="12" y="0" width="216" height="40" rx="10" fill="#FFD60A" opacity="0.15"/>
    <rect x="12" y="0" width="3" height="40" rx="2" fill="#FFD60A"/>
    <text x="32" y="25" font-weight="800" fill="#FFD60A">📊  Tổng quan</text>

    <text x="32" y="65">🏢  Operators</text>
    <rect x="190" y="51" width="32" height="20" rx="10" fill="#EF4444"/>
    <text x="206" y="65" text-anchor="middle" font-weight="700" fill="#FFFBEA" font-size="11">12</text>

    <text x="32" y="105">👥  Users</text>
    <text x="32" y="145">🗺  Tours</text>
    <text x="32" y="185">📅  Bookings</text>

    <text x="32" y="225">⚖  Disputes</text>
    <rect x="190" y="211" width="32" height="20" rx="10" fill="#EF4444"/>
    <text x="206" y="225" text-anchor="middle" font-weight="700" fill="#FFFBEA" font-size="11">5</text>

    <text x="32" y="265">💰  Payouts</text>
    <text x="32" y="305">🎟  Coupons</text>
    <text x="32" y="345">🤖  AI Console</text>
    <text x="32" y="385">🚩  Feature Flags</text>
    <text x="32" y="425">📜  Audit Log</text>
    <text x="32" y="465">❤  System Health</text>
  </g>

  <!-- Top bar -->
  <rect x="240" y="0" width="1200" height="64" fill="#111114"/>
  <line x1="240" y1="64" x2="1440" y2="64" stroke="#FFD60A" stroke-width="1" opacity="0.15"/>

  <g transform="translate(264,18)">
    <text font-size="11" fill="#9CA3AF">Admin / </text>
    <text x="46" font-size="11" font-weight="700" fill="#FFD60A">Tổng quan</text>

    <!-- search -->
    <rect x="280" y="-2" width="320" height="32" rx="8" fill="#0A0A0A" stroke="#FFD60A" stroke-width="0.5" opacity="0.6"/>
    <text x="296" y="20" font-size="12" fill="#6B6B70">🔍  Tìm operator, tour, user...</text>
    <rect x="560" y="3" width="32" height="22" rx="4" fill="#FFD60A" opacity="0.15"/>
    <text x="576" y="19" text-anchor="middle" font-size="10" font-weight="700" fill="#FFD60A">⌘K</text>

    <!-- right -->
    <text x="980" y="20" font-size="14" fill="#FFFBEA">🔔</text>
    <circle cx="988" cy="2" r="6" fill="#EF4444"/>
    <text x="988" y="6" text-anchor="middle" font-size="8" font-weight="700" fill="#FFFBEA">3</text>

    <circle cx="1040" cy="14" r="16" fill="#FFD60A"/>
    <text x="1040" y="20" text-anchor="middle" font-size="13" font-weight="800" fill="#0A0A0A">T</text>
    <text x="1064" y="14" font-size="13" font-weight="700" fill="#FFFBEA">tantr</text>
    <text x="1064" y="28" font-size="10" fill="#9CA3AF">Super Admin</text>
  </g>

  <!-- Content area -->
  <g transform="translate(264,88)">
    <text font-size="24" font-weight="900" fill="#FFFBEA">Tổng quan platform</text>
    <text x="1148" text-anchor="end" font-size="11" fill="#9CA3AF">Cập nhật 2 phút trước · </text>
    <text x="1170" text-anchor="end" font-size="11" font-weight="700" fill="#FFD60A">30 ngày qua ▾</text>
  </g>

  <!-- KPI cards row -->
  <g transform="translate(264,128)">
    <!-- KPI 1 -->
    <g>
      <rect width="276" height="130" rx="14" fill="url(#kpiBg)" stroke="#FFD60A" stroke-width="0.5" stroke-opacity="0.2"/>
      <text x="20" y="28" font-size="11" font-weight="700" fill="#9CA3AF" letter-spacing="1">GMV THÁNG</text>
      <text x="20" y="62" font-size="28" font-weight="900" fill="#FFFBEA">2.41B</text>
      <text x="120" y="60" font-size="11" font-weight="700" fill="#10B981">↑ 18%</text>
      <!-- sparkline -->
      <path d="M 20 110 L 50 100 L 80 105 L 110 90 L 140 95 L 170 80 L 200 70 L 230 85 L 256 65" stroke="#FFD60A" stroke-width="2" fill="none"/>
      <path d="M 20 110 L 50 100 L 80 105 L 110 90 L 140 95 L 170 80 L 200 70 L 230 85 L 256 65 L 256 120 L 20 120 Z" fill="url(#spark)"/>
    </g>

    <g transform="translate(296,0)">
      <rect width="276" height="130" rx="14" fill="url(#kpiBg)" stroke="#FFD60A" stroke-width="0.5" stroke-opacity="0.2"/>
      <text x="20" y="28" font-size="11" font-weight="700" fill="#9CA3AF" letter-spacing="1">BOOKINGS</text>
      <text x="20" y="62" font-size="28" font-weight="900" fill="#FFFBEA">8.214</text>
      <text x="120" y="60" font-size="11" font-weight="700" fill="#10B981">↑ 22%</text>
      <path d="M 20 105 L 50 95 L 80 100 L 110 80 L 140 85 L 170 75 L 200 60 L 230 70 L 256 55" stroke="#FFD60A" stroke-width="2" fill="none"/>
      <path d="M 20 105 L 50 95 L 80 100 L 110 80 L 140 85 L 170 75 L 200 60 L 230 70 L 256 55 L 256 120 L 20 120 Z" fill="url(#spark)"/>
    </g>

    <g transform="translate(592,0)">
      <rect width="276" height="130" rx="14" fill="url(#kpiBg)" stroke="#FFD60A" stroke-width="0.5" stroke-opacity="0.2"/>
      <text x="20" y="28" font-size="11" font-weight="700" fill="#9CA3AF" letter-spacing="1">MAU</text>
      <text x="20" y="62" font-size="28" font-weight="900" fill="#FFFBEA">142k</text>
      <text x="120" y="60" font-size="11" font-weight="700" fill="#10B981">↑ 9%</text>
      <path d="M 20 100 L 50 95 L 80 88 L 110 92 L 140 80 L 170 78 L 200 72 L 230 68 L 256 62" stroke="#FFD60A" stroke-width="2" fill="none"/>
      <path d="M 20 100 L 50 95 L 80 88 L 110 92 L 140 80 L 170 78 L 200 72 L 230 68 L 256 62 L 256 120 L 20 120 Z" fill="url(#spark)"/>
    </g>

    <g transform="translate(888,0)">
      <rect width="276" height="130" rx="14" fill="url(#kpiBg)" stroke="#EF4444" stroke-width="0.5" stroke-opacity="0.4"/>
      <text x="20" y="28" font-size="11" font-weight="700" fill="#9CA3AF" letter-spacing="1">DISPUTE RATE</text>
      <text x="20" y="62" font-size="28" font-weight="900" fill="#FFFBEA">0.42%</text>
      <text x="120" y="60" font-size="11" font-weight="700" fill="#EF4444">↑ 0.05%</text>
      <path d="M 20 90 L 50 88 L 80 92 L 110 85 L 140 82 L 170 78 L 200 72 L 230 68 L 256 60" stroke="#EF4444" stroke-width="2" fill="none"/>
    </g>
  </g>

  <!-- Chart big -->
  <g transform="translate(264,278)">
    <rect width="780" height="290" rx="14" fill="url(#kpiBg)" stroke="#FFD60A" stroke-width="0.5" stroke-opacity="0.15"/>
    <text x="20" y="28" font-size="14" font-weight="800" fill="#FFFBEA">Doanh thu 30 ngày</text>
    <g transform="translate(640,16)" font-size="10" fill="#9CA3AF">
      <rect width="10" height="10" fill="#FFD60A"/>
      <text x="14" y="9">GMV</text>
      <rect x="50" width="10" height="10" fill="#9CA3AF"/>
      <text x="64" y="9">Refund</text>
    </g>
    <!-- y axis -->
    <g font-size="10" fill="#6B6B70">
      <text x="20" y="60">2.5B</text>
      <text x="20" y="120">2.0B</text>
      <text x="20" y="180">1.5B</text>
      <text x="20" y="240">1.0B</text>
    </g>
    <!-- bars -->
    <g transform="translate(60,60)">
      <rect x="0" y="120" width="18" height="100" fill="#FFD60A" opacity="0.7"/>
      <rect x="28" y="100" width="18" height="120" fill="#FFD60A" opacity="0.7"/>
      <rect x="56" y="80" width="18" height="140" fill="#FFD60A" opacity="0.85"/>
      <rect x="84" y="110" width="18" height="110" fill="#FFD60A" opacity="0.7"/>
      <rect x="112" y="60" width="18" height="160" fill="#FFD60A"/>
      <rect x="140" y="90" width="18" height="130" fill="#FFD60A" opacity="0.85"/>
      <rect x="168" y="40" width="18" height="180" fill="#FFD60A"/>
      <rect x="196" y="70" width="18" height="150" fill="#FFD60A" opacity="0.85"/>
      <rect x="224" y="100" width="18" height="120" fill="#FFD60A" opacity="0.7"/>
      <rect x="252" y="50" width="18" height="170" fill="#FFD60A"/>
      <rect x="280" y="20" width="18" height="200" fill="#FFD60A"/>
      <rect x="308" y="60" width="18" height="160" fill="#FFD60A" opacity="0.85"/>
      <rect x="336" y="90" width="18" height="130" fill="#FFD60A" opacity="0.7"/>
      <rect x="364" y="30" width="18" height="190" fill="#FFD60A"/>
      <rect x="392" y="10" width="18" height="210" fill="#FFD60A"/>
      <rect x="420" y="50" width="18" height="170" fill="#FFD60A"/>
      <rect x="448" y="80" width="18" height="140" fill="#FFD60A" opacity="0.85"/>
      <rect x="476" y="40" width="18" height="180" fill="#FFD60A"/>
      <rect x="504" y="20" width="18" height="200" fill="#FFD60A"/>
      <rect x="532" y="0" width="18" height="220" fill="#FFD60A"/>
      <rect x="560" y="30" width="18" height="190" fill="#FFD60A"/>
      <rect x="588" y="60" width="18" height="160" fill="#FFD60A" opacity="0.85"/>
      <rect x="616" y="20" width="18" height="200" fill="#FFD60A"/>
      <rect x="644" y="0" width="18" height="220" fill="#FFD60A"/>
      <rect x="672" y="40" width="18" height="180" fill="#FFD60A"/>
    </g>
  </g>

  <!-- Right panel: Pending KYC list -->
  <g transform="translate(1064,278)">
    <rect width="352" height="290" rx="14" fill="url(#kpiBg)" stroke="#FFD60A" stroke-width="0.5" stroke-opacity="0.2"/>
    <text x="20" y="28" font-size="14" font-weight="800" fill="#FFFBEA">⏳ Chờ duyệt KYC</text>
    <rect x="288" y="10" width="48" height="22" rx="11" fill="#EF4444"/>
    <text x="312" y="25" text-anchor="middle" font-size="11" font-weight="800" fill="#FFFBEA">12 mới</text>

    <!-- items -->
    <g transform="translate(20,52)" font-size="12" fill="#FFFBEA">
      <g>
        <circle cx="14" cy="14" r="14" fill="#FFD60A"/>
        <text x="14" y="19" text-anchor="middle" font-weight="800" fill="#0A0A0A">VT</text>
        <text x="36" y="13" font-weight="700">Vietravel Premium</text>
        <text x="36" y="28" font-size="10" fill="#9CA3AF">Hà Nội · 2h trước · Risk: 12</text>
        <rect x="240" y="6" width="60" height="22" rx="11" fill="#FFD60A"/>
        <text x="270" y="21" text-anchor="middle" font-size="10" font-weight="800" fill="#0A0A0A">Duyệt</text>
      </g>

      <g transform="translate(0,46)">
        <circle cx="14" cy="14" r="14" fill="#FFD60A" opacity="0.7"/>
        <text x="14" y="19" text-anchor="middle" font-weight="800" fill="#0A0A0A">DT</text>
        <text x="36" y="13" font-weight="700">DalatTours.vn</text>
        <text x="36" y="28" font-size="10" fill="#9CA3AF">Đà Lạt · 5h trước · Risk: 28</text>
        <rect x="240" y="6" width="60" height="22" rx="11" fill="none" stroke="#FFD60A" stroke-width="1"/>
        <text x="270" y="21" text-anchor="middle" font-size="10" font-weight="800" fill="#FFD60A">Xem</text>
      </g>

      <g transform="translate(0,92)">
        <circle cx="14" cy="14" r="14" fill="#FFD60A" opacity="0.7"/>
        <text x="14" y="19" text-anchor="middle" font-weight="800" fill="#0A0A0A">PQ</text>
        <text x="36" y="13" font-weight="700">PhuQuoc Adventure</text>
        <text x="36" y="28" font-size="10" fill="#EF4444">Phú Quốc · 1d · Risk: 71 ⚠</text>
        <rect x="240" y="6" width="60" height="22" rx="11" fill="none" stroke="#EF4444" stroke-width="1"/>
        <text x="270" y="21" text-anchor="middle" font-size="10" font-weight="800" fill="#EF4444">Soi kỹ</text>
      </g>

      <g transform="translate(0,138)">
        <circle cx="14" cy="14" r="14" fill="#FFD60A" opacity="0.7"/>
        <text x="14" y="19" text-anchor="middle" font-weight="800" fill="#0A0A0A">SP</text>
        <text x="36" y="13" font-weight="700">Sapa Trekking Co.</text>
        <text x="36" y="28" font-size="10" fill="#9CA3AF">Sapa · 1d · Risk: 8</text>
        <rect x="240" y="6" width="60" height="22" rx="11" fill="#FFD60A"/>
        <text x="270" y="21" text-anchor="middle" font-size="10" font-weight="800" fill="#0A0A0A">Duyệt</text>
      </g>

      <g transform="translate(0,184)">
        <circle cx="14" cy="14" r="14" fill="#FFD60A" opacity="0.7"/>
        <text x="14" y="19" text-anchor="middle" font-weight="800" fill="#0A0A0A">HA</text>
        <text x="36" y="13" font-weight="700">Hanoi Old Quarter</text>
        <text x="36" y="28" font-size="10" fill="#9CA3AF">Hà Nội · 2d · Risk: 19</text>
        <rect x="240" y="6" width="60" height="22" rx="11" fill="none" stroke="#FFD60A" stroke-width="1"/>
        <text x="270" y="21" text-anchor="middle" font-size="10" font-weight="800" fill="#FFD60A">Xem</text>
      </g>
    </g>
  </g>

  <!-- Bottom: Top Operators table -->
  <g transform="translate(264,588)">
    <rect width="1152" height="276" rx="14" fill="url(#kpiBg)" stroke="#FFD60A" stroke-width="0.5" stroke-opacity="0.15"/>
    <text x="20" y="28" font-size="14" font-weight="800" fill="#FFFBEA">🏆 Top Operators (GMV tháng)</text>
    <text x="1132" y="28" text-anchor="end" font-size="11" font-weight="700" fill="#FFD60A">Xem tất cả →</text>

    <!-- header -->
    <g transform="translate(20,56)" font-size="10" font-weight="700" fill="#9CA3AF" letter-spacing="1">
      <text>OPERATOR</text>
      <text x="380">TOURS</text>
      <text x="500">BOOKINGS</text>
      <text x="660">GMV</text>
      <text x="830">RATING</text>
      <text x="980">STATUS</text>
    </g>
    <line x1="20" y1="68" x2="1132" y2="68" stroke="#FFD60A" stroke-width="0.5" stroke-opacity="0.15"/>

    <g transform="translate(20,86)" font-size="13" fill="#FFFBEA">
      <g><text>1.  Vietravel Premium</text><text x="380">142</text><text x="500">2.140</text><text x="660" font-weight="800" fill="#FFD60A">412M</text><text x="830">★ 4.92</text>
        <rect x="980" y="-12" width="68" height="20" rx="10" fill="#10B981" opacity="0.2"/><text x="1014" y="2" text-anchor="middle" font-size="10" font-weight="700" fill="#10B981">Active</text></g>
      <g transform="translate(0,42)"><text>2.  Saigontourist</text><text x="380">98</text><text x="500">1.842</text><text x="660" font-weight="800" fill="#FFD60A">389M</text><text x="830">★ 4.88</text>
        <rect x="980" y="-12" width="68" height="20" rx="10" fill="#10B981" opacity="0.2"/><text x="1014" y="2" text-anchor="middle" font-size="10" font-weight="700" fill="#10B981">Active</text></g>
      <g transform="translate(0,84)"><text>3.  Hanoi Heritage</text><text x="380">76</text><text x="500">1.241</text><text x="660" font-weight="800" fill="#FFD60A">214M</text><text x="830">★ 4.79</text>
        <rect x="980" y="-12" width="68" height="20" rx="10" fill="#FFD60A" opacity="0.2"/><text x="1014" y="2" text-anchor="middle" font-size="10" font-weight="700" fill="#FFD60A">Warn</text></g>
      <g transform="translate(0,126)"><text>4.  DaNang Tour Co.</text><text x="380">62</text><text x="500">1.002</text><text x="660" font-weight="800" fill="#FFD60A">198M</text><text x="830">★ 4.85</text>
        <rect x="980" y="-12" width="68" height="20" rx="10" fill="#10B981" opacity="0.2"/><text x="1014" y="2" text-anchor="middle" font-size="10" font-weight="700" fill="#10B981">Active</text></g>
      <g transform="translate(0,168)"><text>5.  Sapa Trekking</text><text x="380">48</text><text x="500">812</text><text x="660" font-weight="800" fill="#FFD60A">142M</text><text x="830">★ 4.81</text>
        <rect x="980" y="-12" width="68" height="20" rx="10" fill="#10B981" opacity="0.2"/><text x="1014" y="2" text-anchor="middle" font-size="10" font-weight="700" fill="#10B981">Active</text></g>
    </g>
  </g>
</svg>

